<svg width="255" height="67" viewBox="0 0 255 67" fill="none" xmlns="http://www.w3.org/2000/svg">
<path d="M67.9999 33.9629L67.9416 51.3582H66.5264L66.5769 35.0314C66.6089 24.7747 58.984 16.4417 49.567 16.4417C44.8698 16.4417 40.6172 18.5171 37.5393 21.8685C37.4839 21.9286 37.4284 21.9901 37.3729 22.0517L37.3622 22.0638L37.3317 22.0982C37.2606 22.1783 37.1894 22.2585 37.1219 22.3401L37.0508 22.4259C37.0351 22.4446 37.0195 22.4624 37.0045 22.481C36.9697 22.5218 36.9334 22.5626 36.9014 22.6041L36.8452 22.6757C36.7848 22.7473 36.7258 22.8231 36.6667 22.8983L36.6525 22.9162C36.5651 23.0278 36.4783 23.1402 36.393 23.2547C36.3076 23.3692 36.213 23.4973 36.1249 23.6204L36.0992 23.6569L36.0409 23.7399C36.0018 23.7957 35.9627 23.8522 35.9243 23.9088C35.8859 23.9653 35.8468 24.0226 35.8091 24.0791C35.7714 24.1356 35.7323 24.1936 35.6953 24.2516C35.6704 24.2888 35.647 24.3231 35.6242 24.3632C35.2858 24.8896 34.9739 25.4327 34.6898 25.9906C34.6485 26.0722 34.6073 26.1538 34.5674 26.2353C34.5276 26.3169 34.4871 26.3999 34.448 26.483C34.4352 26.5094 34.4231 26.5359 34.411 26.5624C34.3576 26.6755 34.305 26.7893 34.2545 26.9038C34.2382 26.9403 34.2218 26.9753 34.2062 27.0133C34.204 27.0177 34.2021 27.0222 34.2005 27.0268L34.155 27.1321C34.1393 27.1669 34.1244 27.2019 34.1102 27.2373C34.0739 27.3217 34.0391 27.4069 34.0042 27.4927C33.9694 27.5786 33.9331 27.6638 33.9018 27.7504C33.8705 27.837 33.8357 27.9236 33.803 28.0102C33.7766 28.0817 33.7503 28.1497 33.7261 28.2198C33.702 28.29 33.6757 28.363 33.6515 28.4302C33.6173 28.5257 33.5846 28.623 33.5533 28.7222C33.5292 28.7938 33.5071 28.8618 33.4858 28.9312C33.473 28.9698 33.4609 29.0078 33.4495 29.0464C33.4381 29.0851 33.426 29.1223 33.414 29.1609C33.3905 29.2396 33.367 29.3191 33.3428 29.3985C33.3187 29.4779 33.2966 29.5574 33.2753 29.6375C33.2539 29.7177 33.2319 29.795 33.2113 29.8744L33.1579 30.0812C33.1416 30.1485 33.1245 30.2165 33.1089 30.2838C33.0989 30.3238 33.0897 30.3639 33.0804 30.4047C33.0662 30.4655 33.052 30.5264 33.0392 30.5872C32.9828 30.8362 32.9318 31.0872 32.8863 31.3401C32.8863 31.3451 32.8863 31.3501 32.8863 31.3551L32.8479 31.5755C32.8337 31.6578 32.8201 31.7401 32.8073 31.8231C32.6434 32.8646 32.5614 33.9175 32.562 34.972V49.9112C31.6565 48.9216 31.1567 47.6238 31.1632 46.2785L31.2037 34.2134C31.2047 33.896 31.1866 33.5789 31.1497 33.2637C31.2022 31.6399 31.4664 30.03 31.9355 28.4753C32.1663 27.7116 32.4468 26.9641 32.7753 26.2375C32.947 25.8558 33.1314 25.4818 33.3286 25.1154C33.4647 24.8601 33.6069 24.608 33.7553 24.3589C34.044 23.8761 34.3555 23.4057 34.6898 22.9477L34.7082 22.9219C34.923 22.6289 35.1468 22.3427 35.3796 22.0631C35.4734 21.9493 35.5687 21.8377 35.664 21.726C35.8873 21.467 36.1196 21.2134 36.361 20.9653C36.4178 20.9052 36.4762 20.8458 36.5352 20.7864C39.1168 18.1893 42.4065 16.4221 45.9873 15.7087C49.5681 14.9953 53.2788 15.3679 56.649 16.7792C60.0191 18.1905 62.897 20.5771 64.9178 23.6362C66.9386 26.6954 68.0113 30.2895 67.9999 33.9629Z" fill="url(#paint0_linear_11_44)"/>
<path d="M66.5769 35.0314L66.5264 51.3604H62.6065L62.6663 33.5185C62.6912 26.2189 56.8192 20.289 49.5669 20.289C47.8461 20.2873 46.1419 20.6278 44.5523 21.291C42.9627 21.9542 41.519 22.927 40.3042 24.1535C40.2412 24.217 40.1786 24.2814 40.1165 24.3468C40.0959 24.3675 40.0759 24.389 40.056 24.4104C39.9934 24.477 39.9316 24.5443 39.8704 24.6115C39.8093 24.6788 39.7481 24.7489 39.6877 24.8184C39.6734 24.8348 39.6592 24.852 39.6443 24.8685C39.5916 24.9307 39.5397 24.9923 39.4871 25.056L39.4594 25.0889C39.4252 25.1297 39.3925 25.1705 39.3598 25.212L39.2617 25.3358C39.229 25.3773 39.197 25.4188 39.165 25.461C39.133 25.5032 39.1017 25.5448 39.0704 25.587C39.0391 25.6292 38.9936 25.69 38.9566 25.7423C38.9196 25.7945 38.8812 25.8468 38.8449 25.8997L38.756 26.0285C38.7269 26.0708 38.6992 26.113 38.6707 26.1552C38.6636 26.1652 38.6572 26.1752 38.6508 26.186C38.6124 26.2432 38.5747 26.3012 38.5377 26.3592L38.5235 26.3813C38.4943 26.4271 38.4659 26.4737 38.4375 26.5202C38.4261 26.5388 38.414 26.5574 38.4026 26.5767L38.3955 26.5889C38.3692 26.6311 38.3436 26.6733 38.3187 26.7163C38.2938 26.7592 38.2782 26.7843 38.259 26.8179L38.2362 26.8573C38.2085 26.9045 38.1814 26.9517 38.1551 27.0004C38.1288 27.049 38.1018 27.0956 38.0762 27.1435C38.0655 27.1628 38.0541 27.1822 38.0435 27.2022L38.0293 27.2294L37.9987 27.2874L37.934 27.4112C37.9048 27.467 37.8764 27.5235 37.8486 27.5793C37.8209 27.6352 37.8003 27.6774 37.7775 27.7268C37.7548 27.7761 37.7348 27.8148 37.7149 27.8584L37.7071 27.8749L37.6595 27.9787L37.6417 28.018C37.5947 28.1197 37.5507 28.222 37.508 28.3243C37.4866 28.3751 37.4653 28.426 37.4447 28.4768C37.4177 28.5426 37.3914 28.6084 37.3658 28.675C37.3117 28.8134 37.2603 28.9524 37.2114 29.0922C37.1678 29.2144 37.1268 29.3377 37.0884 29.4622C37.0841 29.4744 37.0799 29.4873 37.0763 29.5001C37.0514 29.5781 37.0272 29.6569 37.0052 29.7356C36.9896 29.7885 36.9746 29.8422 36.9597 29.8959C36.9483 29.9381 36.9362 29.9796 36.9248 30.0219C36.9184 30.0433 36.9128 30.0655 36.9071 30.087C36.8694 30.2301 36.8359 30.3782 36.8004 30.5257C36.7869 30.5836 36.7741 30.6423 36.7613 30.701L36.7549 30.7318C36.7549 30.7354 36.7549 30.7396 36.7549 30.7439C36.7279 30.8747 36.7025 31.0066 36.6788 31.1397C36.6752 31.1583 36.6717 31.1769 36.6688 31.1962L36.639 31.373C36.639 31.3802 36.639 31.3873 36.6354 31.3952C36.6254 31.4632 36.6148 31.5319 36.6055 31.5999C36.6055 31.6099 36.6055 31.6192 36.6013 31.6292C36.5927 31.6922 36.5842 31.7559 36.5764 31.8188C36.5764 31.826 36.5764 31.8332 36.5764 31.8403C36.5622 31.9562 36.5494 32.0729 36.538 32.1896C36.538 32.2196 36.5323 32.2497 36.5302 32.2797C36.5195 32.3928 36.511 32.5066 36.5038 32.6204C36.5038 32.6268 36.5038 32.6325 36.5038 32.639C36.5038 32.6576 36.5038 32.6762 36.5038 32.6948V32.6984C36.5003 32.747 36.4982 32.7964 36.496 32.8415C36.4925 32.9059 36.4903 32.9703 36.4882 33.0347C36.4882 33.0777 36.4882 33.1213 36.4882 33.165V33.1779C36.4882 33.2179 36.4882 33.258 36.4882 33.2981C36.4882 33.3546 36.4882 33.4119 36.4882 33.4684V51.3582H34.7544C34.4877 51.2667 34.2287 51.1538 33.98 51.0204C33.4467 50.7347 32.9657 50.3596 32.5577 49.9112V34.9663C32.5571 33.9118 32.6391 32.8589 32.803 31.8174C32.8158 31.7344 32.8293 31.6521 32.8436 31.5698L32.882 31.3494C32.882 31.3444 32.882 31.3394 32.882 31.3344C32.9294 31.0815 32.9803 30.8305 33.0349 30.5815C33.0477 30.5207 33.0619 30.4598 33.0761 30.399C33.0854 30.3582 33.0946 30.3181 33.1046 30.2781C33.1202 30.2108 33.1373 30.1428 33.1536 30.0755L33.207 29.8687C33.2276 29.7893 33.2489 29.7105 33.271 29.6318C33.293 29.5531 33.3151 29.4722 33.3385 29.3928C33.362 29.3134 33.3847 29.2339 33.4096 29.1552C33.4217 29.1166 33.4331 29.0786 33.4452 29.0407C33.4573 29.0028 33.4687 28.9641 33.4815 28.9255C33.5035 28.8539 33.5256 28.7859 33.549 28.7165C33.5813 28.6211 33.614 28.5238 33.6472 28.4245C33.6713 28.3544 33.6962 28.2843 33.7218 28.2141L33.7986 28.0044C33.8313 27.9178 33.8641 27.8305 33.8975 27.7447C33.9309 27.6588 33.965 27.5722 33.9999 27.487C34.0347 27.4019 34.071 27.316 34.1059 27.2315C34.1201 27.1962 34.135 27.1612 34.1507 27.1263L34.1962 27.0211C34.1978 27.0165 34.1997 27.0119 34.2019 27.0075C34.2175 26.9703 34.2339 26.936 34.2502 26.898C34.3007 26.7835 34.3533 26.6698 34.4067 26.5567C34.4188 26.5302 34.4308 26.5037 34.4436 26.4772C34.4828 26.3942 34.5226 26.3119 34.5631 26.2296C34.6037 26.1473 34.6442 26.0665 34.6854 25.9849C34.9696 25.427 35.2815 24.8839 35.6199 24.3575C35.6441 24.3203 35.6675 24.2859 35.691 24.2458C35.7287 24.1879 35.7664 24.1306 35.8048 24.0734C35.8432 24.0161 35.8809 23.9596 35.92 23.9031C35.9591 23.8465 35.9975 23.79 36.0366 23.7342L36.0949 23.6511L36.1205 23.6146C36.2087 23.4916 36.2976 23.3692 36.3886 23.2489C36.4797 23.1287 36.5607 23.0221 36.6482 22.9104L36.6624 22.8926C36.7215 22.821 36.7805 22.7437 36.8409 22.67L36.8971 22.5984C36.9312 22.5569 36.9682 22.5161 37.0002 22.4753C37.0152 22.4567 37.0308 22.4388 37.0464 22.4202L37.1176 22.3343C37.1887 22.2528 37.2598 22.1726 37.3274 22.0925L37.3579 22.0581L37.3686 22.0459C37.4241 21.9844 37.4795 21.9229 37.535 21.8627C40.6129 18.5099 44.8655 16.436 49.5627 16.436C58.9839 16.4395 66.6089 24.7726 66.5769 35.0314Z" fill="url(#paint1_linear_11_44)"/>
<path d="M62.6663 33.5164L62.6066 51.3582C61.907 51.3582 61.2144 51.2192 60.5684 50.9493C59.9223 50.6793 59.3356 50.2836 58.8419 49.785C58.3482 49.2863 57.9571 48.6945 57.6912 48.0434C57.4252 47.3923 57.2896 46.6948 57.2921 45.9908L57.3327 33.9257C57.3413 31.9155 56.5797 29.9793 55.2064 28.5195C53.8331 27.0597 51.9536 26.1886 49.9586 26.0872C47.9635 25.9859 46.0064 26.6621 44.494 27.9753C42.9815 29.2885 42.0301 31.1377 41.8375 33.1385C41.8133 33.3875 41.8012 33.6395 41.8012 33.8964V45.9908C41.8031 47.334 41.3024 48.6285 40.3988 49.617L40.391 49.6256C40.3419 49.68 40.2907 49.7337 40.2388 49.7859C39.8658 50.1624 39.4388 50.4805 38.9723 50.7299C38.7184 50.8674 38.4533 50.9831 38.18 51.0755C37.7227 51.2312 37.2463 51.323 36.7641 51.3482C36.6681 51.3539 36.5707 51.3568 36.4733 51.3568H36.4676V33.472C36.4676 33.4155 36.4676 33.3582 36.4676 33.3017C36.4676 33.2616 36.4676 33.2215 36.4676 33.1814V33.1707C36.4676 33.1271 36.4676 33.0834 36.4676 33.0405C36.4676 32.9761 36.4719 32.9116 36.4754 32.8472C36.4754 32.7986 36.4797 32.7492 36.4832 32.7041V32.7005C36.4832 32.6819 36.4832 32.6633 36.4832 32.6447C36.4832 32.6383 36.4832 32.6325 36.4832 32.6261C36.4903 32.5123 36.4989 32.3985 36.5095 32.2854C36.5095 32.2554 36.5145 32.2253 36.5174 32.1953C36.5287 32.0786 36.5416 31.962 36.5558 31.846C36.5558 31.8389 36.5558 31.8317 36.5558 31.8246C36.5636 31.7616 36.5721 31.6979 36.5807 31.6349C36.5807 31.6249 36.5807 31.6156 36.5849 31.6056C36.5942 31.5376 36.6048 31.4689 36.6148 31.4009C36.6148 31.393 36.6148 31.3859 36.6184 31.3787L36.6482 31.202C36.6482 31.1826 36.6546 31.164 36.6582 31.1454C36.6816 31.0123 36.7065 30.8806 36.7343 30.7497C36.7343 30.7454 36.7343 30.7411 36.7343 30.7375L36.7407 30.7067C36.7499 30.6609 36.7599 30.6158 36.7705 30.57C36.7705 30.5572 36.7762 30.5443 36.7798 30.5314C36.8125 30.384 36.8509 30.238 36.8865 30.0927C36.8921 30.0712 36.8978 30.049 36.9042 30.0276C36.9156 29.9854 36.9277 29.9438 36.9391 29.9016C36.954 29.8479 36.969 29.7943 36.9846 29.7413C37.0074 29.6626 37.0315 29.5839 37.0557 29.5059C37.0593 29.493 37.0635 29.4801 37.0678 29.4679C37.1062 29.3434 37.1472 29.2201 37.1908 29.0979C37.2382 28.9577 37.2897 28.8186 37.3451 28.6807C37.3707 28.6142 37.3971 28.5483 37.4241 28.4825C37.4447 28.4317 37.466 28.3809 37.4874 28.3301C37.53 28.2277 37.5741 28.1254 37.6211 28.0238L37.6403 27.9823L37.6879 27.8785L37.6957 27.862C37.7157 27.8184 37.737 27.774 37.7583 27.7303C37.7797 27.6867 37.806 27.6316 37.8294 27.5829C37.8529 27.5343 37.8856 27.4706 37.9148 27.4147L37.9795 27.2909L38.0101 27.233L38.0243 27.2058C38.035 27.1857 38.0463 27.1664 38.057 27.1471C38.0826 27.0991 38.1089 27.0512 38.1359 27.004C38.163 26.9567 38.1893 26.9088 38.217 26.8608L38.2398 26.8215C38.259 26.7878 38.2789 26.7535 38.2995 26.7198C38.3201 26.6862 38.35 26.6347 38.3763 26.5925L38.3834 26.5803C38.3948 26.561 38.4069 26.5424 38.4183 26.5238C38.4467 26.4772 38.4759 26.4307 38.505 26.3849L38.5193 26.3627C38.5562 26.3048 38.5904 26.2468 38.6323 26.1895C38.6387 26.1788 38.6451 26.1688 38.6522 26.1588C38.6807 26.1166 38.7084 26.0743 38.7376 26.0321L38.8265 25.9033C38.8627 25.8503 38.8976 25.7981 38.9381 25.7458C38.9787 25.6936 39.0135 25.6421 39.0519 25.5906C39.0903 25.539 39.1145 25.5061 39.1465 25.4646C39.1785 25.4231 39.2105 25.3809 39.2432 25.3394L39.3413 25.2156C39.3741 25.174 39.4075 25.1333 39.4409 25.0925L39.4686 25.0595C39.5213 24.9958 39.5732 24.9343 39.6258 24.872C39.6407 24.8556 39.655 24.8384 39.6692 24.8219C39.7296 24.7504 39.7908 24.6831 39.8519 24.6151C39.9131 24.5471 39.975 24.4806 40.0376 24.414C40.0575 24.3926 40.0774 24.3711 40.098 24.3503C40.1601 24.2854 40.2227 24.221 40.2857 24.1571C41.5024 22.9277 42.949 21.953 44.542 21.2891C46.1349 20.6252 47.8428 20.2853 49.5669 20.289C56.8192 20.289 62.6912 26.2189 62.6663 33.5164Z" fill="url(#paint2_linear_11_44)"/>
<path d="M41.8375 33.1399C41.8133 33.389 41.8012 33.6409 41.8012 33.8978V45.9908C41.8031 47.3339 41.3024 48.6285 40.3988 49.617L40.4429 35.3176C40.4481 34.242 40.3675 33.1677 40.2018 32.1051C39.9805 30.6919 39.6058 29.3075 39.0846 27.9765C38.8869 27.4794 38.6712 26.9923 38.4375 26.5152C38.3977 26.4329 38.3564 26.3506 38.3152 26.269C38.031 25.7111 37.7191 25.168 37.3807 24.6416C37.2947 24.5078 37.2072 24.3746 37.1169 24.2437C36.886 23.9026 36.6442 23.5703 36.3915 23.2468C36.3047 23.1366 36.2173 23.0264 36.1284 22.9183C35.8861 22.623 35.6356 22.3367 35.3767 22.0595C32.3081 18.7618 28.0881 16.7258 23.433 16.7258C18.7394 16.7258 14.4832 18.8012 11.4053 22.1526C8.32746 25.5039 6.4223 30.1371 6.4223 35.2525V51.6445H5V34.1869C4.99947 30.5306 6.07268 26.9557 8.08481 23.9114C10.0969 20.867 12.9582 18.4889 16.3092 17.0758C19.6602 15.6628 23.3514 15.2779 26.9191 15.9694C30.4868 16.6609 33.7719 18.398 36.3616 20.9624L36.4918 21.092C36.6966 21.299 36.8952 21.5094 37.0877 21.7232C37.1851 21.8312 37.2819 21.9379 37.3757 22.0495C37.6194 22.331 37.8529 22.6173 38.0762 22.9083C38.1582 23.0147 38.2386 23.122 38.3173 23.2303C38.6515 23.6874 38.963 24.1578 39.2517 24.6416C39.3328 24.7766 39.4122 24.9131 39.49 25.0509C39.6986 25.4207 39.8941 25.7974 40.0767 26.1809C40.4726 27.0132 40.8055 27.8745 41.0723 28.7573C41.5011 30.182 41.758 31.6534 41.8375 33.1399Z" fill="url(#paint3_linear_11_44)"/>
<path d="M40.4429 35.3176L40.3988 49.6192L40.391 49.6278C40.3419 49.6822 40.2907 49.7358 40.2388 49.7881C39.8658 50.1645 39.4389 50.4827 38.9723 50.732C38.7184 50.8696 38.4534 50.9852 38.18 51.0777C37.7226 51.2327 37.2462 51.3237 36.7642 51.3482C36.6681 51.3539 36.5707 51.3568 36.4733 51.3568L36.5323 33.8012C36.5323 33.7296 36.5323 33.6581 36.5323 33.5865C36.5323 33.5636 36.5323 33.54 36.5323 33.5149C36.5323 33.4734 36.5323 33.4319 36.5323 33.3897C36.5323 33.3475 36.5323 33.2938 36.5273 33.2466C36.5224 33.1993 36.5231 33.1342 36.5202 33.0784C36.5145 32.966 36.5074 32.8544 36.4989 32.7427C36.4989 32.7277 36.4989 32.7127 36.4953 32.6984V32.6948C36.4953 32.6669 36.4911 32.639 36.4882 32.6111C36.474 32.4412 36.4565 32.2726 36.4356 32.1051C36.4278 32.0443 36.42 31.9834 36.4114 31.9233C36.4 31.8382 36.3872 31.7537 36.3737 31.6693C36.3659 31.617 36.3574 31.5641 36.3481 31.5118C36.3481 31.5118 36.3481 31.5075 36.3481 31.5054C36.3439 31.4782 36.3389 31.451 36.3339 31.4238C36.3232 31.3615 36.3119 31.2993 36.2998 31.2377C36.2877 31.1762 36.2756 31.1161 36.2635 31.0552C36.2336 30.9121 36.2021 30.7711 36.1689 30.6323L36.1262 30.4634C36.0841 30.2988 36.039 30.1359 35.9911 29.9746C35.9712 29.903 35.9499 29.8372 35.9278 29.7685C35.8852 29.6321 35.8399 29.4963 35.792 29.3613C35.7683 29.294 35.7446 29.2268 35.7209 29.1595C35.6981 29.0972 35.674 29.0343 35.6498 28.972C35.6256 28.9097 35.5943 28.8289 35.5659 28.7616C35.5374 28.6943 35.504 28.612 35.472 28.5376C35.4464 28.4782 35.4208 28.4188 35.3938 28.3601C35.3916 28.354 35.389 28.348 35.3859 28.3422C35.3781 28.3236 35.3696 28.305 35.3611 28.2871C35.3184 28.1926 35.275 28.0989 35.2295 28.0059C35.2287 28.0033 35.2275 28.0009 35.2259 27.9987C35.2067 27.9586 35.1875 27.9186 35.1676 27.8792C35.1321 27.8076 35.0965 27.7361 35.0581 27.6645C35.0197 27.5929 34.9834 27.5214 34.945 27.4498C34.9066 27.3782 34.8739 27.3224 34.8398 27.2587C34.7914 27.1728 34.7416 27.087 34.6912 27.0025C34.6613 26.9524 34.6314 26.9023 34.6001 26.853C34.5394 26.7537 34.4776 26.655 34.4145 26.5567C34.3434 26.4486 34.2723 26.342 34.2012 26.2368C34.1154 26.1127 34.0277 25.9908 33.938 25.8711C33.9188 25.8446 33.8989 25.8181 33.879 25.7924C33.842 25.7446 33.8044 25.6953 33.7659 25.6442C33.7169 25.5812 33.6678 25.5183 33.6173 25.4567C33.5668 25.3952 33.5185 25.3358 33.4687 25.2757C33.4189 25.2155 33.3777 25.1676 33.3314 25.1146C33.2888 25.0653 33.2461 25.0166 33.2027 24.9679L33.138 24.8964C33.0278 24.774 32.9147 24.6538 32.8002 24.5385C32.7547 24.492 32.7092 24.4455 32.663 24.3997L32.6551 24.3918C32.6004 24.3374 32.5449 24.2831 32.4887 24.2294C32.4325 24.1757 32.3813 24.127 32.3266 24.0762C32.1753 23.9331 32.021 23.7962 31.8636 23.6655C31.8124 23.6225 31.7605 23.5789 31.7086 23.5366C31.6268 23.4694 31.5443 23.4028 31.4611 23.3384C31.4092 23.2976 31.3566 23.2575 31.304 23.2182C31.2229 23.1566 31.1418 23.0965 31.06 23.0378C31.0145 23.0049 30.969 22.972 30.9228 22.9405C30.9198 22.9374 30.9161 22.935 30.9121 22.9333C30.8673 22.9004 30.8218 22.8696 30.7763 22.8389C30.6789 22.7723 30.58 22.7072 30.4812 22.6435C30.4442 22.6192 30.4065 22.5956 30.3688 22.5719C30.2742 22.5125 30.1796 22.4546 30.0843 22.398C30.0459 22.3751 30.0075 22.3522 29.9684 22.3265L29.8262 22.2442C29.7807 22.2184 29.7344 22.1926 29.6875 22.1676C29.6512 22.1468 29.6164 22.1275 29.578 22.1082C29.5211 22.0772 29.4642 22.0471 29.4073 22.018C29.3433 21.9851 29.2786 21.9529 29.2139 21.9214L29.1079 21.8742C29.0539 21.8477 28.9991 21.8212 28.9444 21.7962C28.8733 21.7618 28.7986 21.7246 28.7253 21.696C28.6521 21.6674 28.5966 21.6394 28.5326 21.6123L28.4124 21.5614L28.31 21.5199L28.2389 21.4906C28.1597 21.4591 28.0801 21.4283 28 21.3983L27.8805 21.3546C27.7994 21.3253 27.7183 21.2967 27.6366 21.2687C27.6003 21.2559 27.5654 21.2437 27.527 21.2322C27.4744 21.2144 27.4218 21.1972 27.3685 21.1807C27.3151 21.1643 27.2412 21.1406 27.1779 21.122C26.929 21.0476 26.6775 20.9806 26.4233 20.9209C26.3593 20.9059 26.2953 20.8909 26.2313 20.8773H26.2164L26.1403 20.8608C26.0827 20.8487 26.0251 20.8365 25.9675 20.8258L25.88 20.8086L25.7065 20.7771H25.6866C25.6276 20.7664 25.5685 20.7563 25.5095 20.7478C25.4832 20.7427 25.4569 20.7392 25.4306 20.7349C25.3666 20.7249 25.3026 20.7155 25.2379 20.707L25.1575 20.6962L24.9321 20.6676L24.7422 20.6476C24.6441 20.6383 24.5452 20.629 24.4456 20.6218C24.366 20.6154 24.2871 20.6103 24.2074 20.6053H24.1477L24.0218 20.5996C23.8284 20.5901 23.6335 20.5855 23.4372 20.586C19.9641 20.5849 16.6326 21.9718 14.1754 24.4419C11.7181 26.9121 10.3363 30.2631 10.3336 33.7582V51.6445H6.4223V35.2561C6.4223 30.1406 8.32605 25.509 11.4046 22.1597C14.4832 18.8105 18.7358 16.7258 23.433 16.7258C28.0881 16.7258 32.3053 18.7618 35.376 22.0603C35.6339 22.3379 35.8845 22.6242 36.1277 22.919C36.2166 23.0271 36.304 23.1337 36.3908 23.2475C36.643 23.57 36.8848 23.9023 37.1162 24.2444C37.2065 24.3754 37.294 24.5085 37.38 24.6423C37.7184 25.1687 38.0303 25.7118 38.3145 26.2697C38.3557 26.3513 38.3969 26.4336 38.4368 26.5159C38.67 26.9901 38.8846 27.476 39.0804 27.9737C39.6032 29.3051 39.9793 30.6903 40.2018 32.1044C40.3676 33.1672 40.4482 34.2418 40.4429 35.3176Z" fill="url(#paint4_linear_11_44)"/>
<path d="M36.5323 33.8026L36.4733 51.3582H34.7544C34.4877 51.2667 34.2287 51.1537 33.98 51.0204C33.1258 50.5628 32.4117 49.8794 31.9145 49.044C31.4173 48.2085 31.1558 47.2524 31.1582 46.2785L31.1987 34.2134C31.1997 33.896 31.1816 33.5789 31.1447 33.2637C30.9114 31.2845 29.9355 29.4698 28.4166 28.1908C26.8977 26.9117 24.9506 26.265 22.9735 26.3829C20.9964 26.5009 19.1388 27.3745 17.7807 28.8252C16.4226 30.2758 15.6665 32.1938 15.6672 34.1869V46.2771C15.6672 47.7006 15.1053 49.0658 14.1051 50.0724C13.1048 51.079 11.7482 51.6445 10.3336 51.6445V33.7582C10.3335 32.0271 10.6723 30.3128 11.3305 28.7134C11.9888 27.114 12.9537 25.6607 14.1701 24.4365C15.3865 23.2124 16.8306 22.2413 18.4199 21.5788C20.0092 20.9163 21.7127 20.5753 23.433 20.5753C23.6292 20.5753 23.8241 20.5798 24.0175 20.5889L24.1434 20.5946H24.2031C24.2828 20.5996 24.3617 20.6046 24.4414 20.6111C24.5409 20.6182 24.6398 20.6275 24.7379 20.6368L24.9278 20.6569L25.1532 20.6855L25.2336 20.6962C25.2983 20.7048 25.3623 20.7141 25.4263 20.7241C25.4526 20.7284 25.4789 20.732 25.5053 20.737C25.5643 20.7456 25.6233 20.7556 25.6823 20.7664H25.7022L25.8758 20.7978L25.9632 20.815C26.0208 20.8258 26.0784 20.8379 26.136 20.8501L26.2121 20.8665H26.2271C26.2911 20.8801 26.3551 20.8952 26.4191 20.9102C26.6737 20.9698 26.9252 21.0369 27.1736 21.1113C27.2369 21.1299 27.3009 21.1499 27.3642 21.17C27.4275 21.19 27.4702 21.2036 27.5228 21.2215C27.5598 21.233 27.5939 21.2451 27.6323 21.258C27.7141 21.2859 27.7951 21.3145 27.8762 21.3439L27.9957 21.3875C28.0758 21.4176 28.1555 21.4484 28.2346 21.4799L28.3058 21.5092L28.4082 21.5507L28.5283 21.6015C28.5923 21.6287 28.6571 21.6566 28.7211 21.6852C28.7851 21.7139 28.8676 21.7511 28.9401 21.7854C28.9949 21.8105 29.0496 21.837 29.1037 21.8634L29.1997 21.9107C29.2644 21.9422 29.3291 21.9744 29.3931 22.0073C29.4571 22.0402 29.5069 22.0667 29.5638 22.0975C29.6 22.1168 29.6349 22.1361 29.6733 22.1569C29.7202 22.1819 29.7665 22.2077 29.812 22.2334L29.9542 22.3157C29.9933 22.3379 30.0317 22.3608 30.0701 22.3873C30.1661 22.4438 30.2607 22.5018 30.3546 22.5612C30.3923 22.5848 30.43 22.6084 30.4669 22.6328C30.5658 22.6965 30.6646 22.7616 30.7621 22.8281C30.8076 22.8589 30.8531 22.8897 30.8979 22.9226C30.9019 22.9242 30.9055 22.9267 30.9086 22.9298C30.9548 22.9612 31.0003 22.9942 31.0458 23.0271C31.1276 23.0858 31.2087 23.1459 31.2897 23.2074C31.3424 23.2468 31.395 23.2869 31.4469 23.3277C31.5301 23.3921 31.6126 23.4586 31.6944 23.5259C31.7463 23.5681 31.7982 23.6118 31.8494 23.6547C32.0068 23.7878 32.1611 23.9248 32.3124 24.0655C32.3671 24.1163 32.4212 24.1671 32.4745 24.2186C32.5278 24.2702 32.5862 24.3267 32.6409 24.3811L32.6487 24.389C32.695 24.4348 32.7405 24.4813 32.786 24.5278C32.9005 24.6459 33.0136 24.7661 33.1238 24.8856L33.1885 24.9572C33.2319 25.0059 33.2745 25.0545 33.3172 25.1039C33.3407 25.1304 33.3634 25.1576 33.3883 25.1841L33.4495 25.2556C33.5021 25.3176 33.554 25.3806 33.6052 25.4446C33.6557 25.5061 33.7048 25.5691 33.7539 25.6321C33.7923 25.6798 33.83 25.7291 33.8669 25.7802C33.8868 25.806 33.9068 25.8324 33.926 25.8589C34.0156 25.9791 34.1033 26.101 34.1891 26.2246C34.2602 26.3298 34.3313 26.4393 34.4024 26.5445C34.4735 26.6497 34.5276 26.7413 34.588 26.8408C34.6193 26.8902 34.6492 26.9403 34.6791 26.9904C34.7296 27.0748 34.7793 27.1607 34.8277 27.2466C34.8633 27.3102 34.8988 27.3732 34.9329 27.4376C34.9671 27.502 35.009 27.5808 35.046 27.6523C35.083 27.7239 35.1171 27.7955 35.1555 27.867C35.1754 27.9064 35.1946 27.9465 35.2138 27.9865C35.2155 27.9887 35.2167 27.9911 35.2174 27.9937C35.2629 28.0867 35.3063 28.1805 35.349 28.2749C35.3575 28.2928 35.366 28.3114 35.3739 28.33C35.3769 28.3358 35.3795 28.3418 35.3817 28.3479C35.4087 28.4066 35.4343 28.466 35.4599 28.5254C35.4919 28.597 35.5232 28.6743 35.5538 28.7494C35.5844 28.8246 35.61 28.8925 35.6377 28.9598C35.6654 29.0271 35.6853 29.0851 35.7088 29.1473C35.7323 29.2096 35.7579 29.2819 35.7799 29.3491C35.8273 29.4837 35.8726 29.6194 35.9158 29.7563C35.9378 29.8279 35.9584 29.8937 35.979 29.9624C36.0265 30.1237 36.0715 30.2866 36.1142 30.4512L36.1568 30.6201C36.1905 30.7594 36.222 30.9004 36.2514 31.0431C36.2635 31.1039 36.2763 31.1647 36.2877 31.2256C36.2991 31.2864 36.3111 31.3494 36.3218 31.4116C36.3268 31.4388 36.3318 31.466 36.336 31.4932C36.336 31.4932 36.336 31.4975 36.336 31.4997C36.3453 31.5519 36.3538 31.6049 36.3616 31.6571C36.3752 31.7415 36.388 31.826 36.3993 31.9112C36.4079 31.9713 36.4157 32.0321 36.4235 32.0929C36.4439 32.2604 36.4614 32.429 36.4761 32.5989C36.4761 32.6268 36.4811 32.6547 36.4832 32.6826V32.6862C36.4832 32.7005 36.4832 32.7155 36.4868 32.7306C36.4953 32.8422 36.5024 32.9539 36.5081 33.0662C36.5081 33.122 36.5138 33.1786 36.5152 33.2344C36.5167 33.2902 36.5188 33.3303 36.5202 33.3775C36.5217 33.4248 36.5202 33.4613 36.5202 33.5028C36.5202 33.5264 36.5202 33.55 36.5202 33.5743C36.5323 33.6581 36.5323 33.7303 36.5323 33.8026Z" fill="url(#paint5_linear_11_44)"/>
<path d="M77.89 23.706C76.5727 23.706 75.5087 23.3513 74.698 22.642C73.9127 21.9073 73.52 20.9953 73.52 19.906C73.52 18.7913 73.9127 17.8667 74.698 17.132C75.5087 16.3973 76.5727 16.03 77.89 16.03C79.182 16.03 80.2207 16.3973 81.006 17.132C81.8167 17.8667 82.222 18.7913 82.222 19.906C82.222 20.9953 81.8167 21.9073 81.006 22.642C80.2207 23.3513 79.182 23.706 77.89 23.706ZM81.576 25.682V47H74.128V25.682H81.576ZM99.7635 25.492C102.221 25.492 104.171 26.3153 105.615 27.962C107.059 29.5833 107.781 31.7873 107.781 34.574V47H100.333V35.562C100.333 34.346 100.017 33.396 99.3835 32.712C98.7501 32.0027 97.9015 31.648 96.8375 31.648C95.7228 31.648 94.8488 32.0027 94.2155 32.712C93.5821 33.396 93.2655 34.346 93.2655 35.562V47H85.8175V25.682H93.2655V28.722C93.9241 27.7593 94.8108 26.9867 95.9255 26.404C97.0401 25.796 98.3195 25.492 99.7635 25.492ZM110.652 36.322C110.652 34.118 111.045 32.1927 111.83 30.546C112.641 28.8993 113.73 27.6327 115.098 26.746C116.492 25.8593 118.037 25.416 119.734 25.416C121.204 25.416 122.47 25.7073 123.534 26.29C124.598 26.8727 125.422 27.658 126.004 28.646V25.682H133.452V47H126.004V44.036C125.422 45.024 124.586 45.8093 123.496 46.392C122.432 46.9747 121.178 47.266 119.734 47.266C118.037 47.266 116.492 46.8227 115.098 45.936C113.73 45.0493 112.641 43.7827 111.83 42.136C111.045 40.464 110.652 38.526 110.652 36.322ZM126.004 36.322C126.004 34.954 125.624 33.8773 124.864 33.092C124.13 32.3067 123.218 31.914 122.128 31.914C121.014 31.914 120.089 32.3067 119.354 33.092C118.62 33.852 118.252 34.9287 118.252 36.322C118.252 37.69 118.62 38.7793 119.354 39.59C120.089 40.3753 121.014 40.768 122.128 40.768C123.218 40.768 124.13 40.3753 124.864 39.59C125.624 38.8047 126.004 37.7153 126.004 36.322ZM151.642 25.492C154.1 25.492 156.05 26.3153 157.494 27.962C158.938 29.5833 159.66 31.7873 159.66 34.574V47H152.212V35.562C152.212 34.346 151.896 33.396 151.262 32.712C150.629 32.0027 149.78 31.648 148.716 31.648C147.602 31.648 146.728 32.0027 146.094 32.712C145.461 33.396 145.144 34.346 145.144 35.562V47H137.696V25.682H145.144V28.722C145.803 27.7593 146.69 26.9867 147.804 26.404C148.919 25.796 150.198 25.492 151.642 25.492ZM162.531 36.322C162.531 34.118 162.987 32.1927 163.899 30.546C164.811 28.8993 166.078 27.6327 167.699 26.746C169.346 25.8593 171.22 25.416 173.323 25.416C176.034 25.416 178.314 26.1633 180.163 27.658C182.012 29.1273 183.203 31.192 183.735 33.852H175.831C175.375 32.4587 174.488 31.762 173.171 31.762C172.234 31.762 171.486 32.1547 170.929 32.94C170.397 33.7 170.131 34.8273 170.131 36.322C170.131 37.8167 170.397 38.9567 170.929 39.742C171.486 40.5273 172.234 40.92 173.171 40.92C174.514 40.92 175.4 40.2233 175.831 38.83H183.735C183.203 41.4647 182.012 43.5293 180.163 45.024C178.314 46.5187 176.034 47.266 173.323 47.266C171.22 47.266 169.346 46.8227 167.699 45.936C166.078 45.0493 164.811 43.7827 163.899 42.136C162.987 40.4893 162.531 38.5513 162.531 36.322ZM207.197 36.094C207.197 36.6767 207.159 37.2593 207.083 37.842H192.985C193.061 39.0073 193.378 39.8813 193.935 40.464C194.518 41.0213 195.253 41.3 196.139 41.3C197.381 41.3 198.267 40.7427 198.799 39.628H206.741C206.412 41.0973 205.766 42.4147 204.803 43.58C203.866 44.72 202.675 45.6193 201.231 46.278C199.787 46.9367 198.191 47.266 196.443 47.266C194.341 47.266 192.466 46.8227 190.819 45.936C189.198 45.0493 187.919 43.7827 186.981 42.136C186.069 40.4893 185.613 38.5513 185.613 36.322C185.613 34.0927 186.069 32.1673 186.981 30.546C187.893 28.8993 189.16 27.6327 190.781 26.746C192.428 25.8593 194.315 25.416 196.443 25.416C198.546 25.416 200.408 25.8467 202.029 26.708C203.651 27.5693 204.917 28.8107 205.829 30.432C206.741 32.028 207.197 33.9153 207.197 36.094ZM199.597 34.232C199.597 33.32 199.293 32.6107 198.685 32.104C198.077 31.572 197.317 31.306 196.405 31.306C195.493 31.306 194.746 31.5593 194.163 32.066C193.581 32.5473 193.201 33.2693 193.023 34.232H199.597Z" fill="white"/>
<defs>
<linearGradient id="paint0_linear_11_44" x1="31.1447" y1="33.3546" x2="67.9999" y2="33.3546" gradientUnits="userSpaceOnUse">
<stop offset="0.21" stop-color="#FCEE21"/>
<stop offset="0.55" stop-color="#29ABE2"/>
<stop offset="0.68" stop-color="#29ABE2"/>
<stop offset="0.93" stop-color="#00FFFF"/>
<stop offset="1" stop-color="#0000FF" stop-opacity="0.38"/>
</linearGradient>
<linearGradient id="paint1_linear_11_44" x1="32.557" y1="33.8985" x2="66.5769" y2="33.8985" gradientUnits="userSpaceOnUse">
<stop stop-color="#FFFF00"/>
<stop offset="0.32" stop-color="#0000FF" stop-opacity="0.38"/>
<stop offset="0.55" stop-color="#29ABE2"/>
<stop offset="0.68" stop-color="#29ABE2"/>
<stop offset="0.93" stop-color="#00FFFF"/>
</linearGradient>
<linearGradient id="paint2_linear_11_44" x1="36.4676" y1="35.8236" x2="78.0641" y2="35.8236" gradientUnits="userSpaceOnUse">
<stop offset="0.03" stop-color="#29ABE2"/>
<stop offset="0.21" stop-color="#FCEE21"/>
<stop offset="0.54" stop-color="#29ABE2"/>
<stop offset="0.72" stop-color="#0000FF"/>
<stop offset="1" stop-color="#0000FF"/>
</linearGradient>
<linearGradient id="paint3_linear_11_44" x1="5" y1="33.6409" x2="41.8375" y2="33.6409" gradientUnits="userSpaceOnUse">
<stop offset="0.21" stop-color="#FCEE21"/>
<stop offset="0.55" stop-color="#761F8B"/>
<stop offset="0.68" stop-color="#29ABE2"/>
<stop offset="0.93" stop-color="#00FFFF"/>
<stop offset="1" stop-color="#0000FF" stop-opacity="0.38"/>
</linearGradient>
<linearGradient id="paint4_linear_11_44" x1="6.42301" y1="34.1848" x2="40.4429" y2="34.1848" gradientUnits="userSpaceOnUse">
<stop stop-color="#FFFF00"/>
<stop offset="0.32" stop-color="#0000FF" stop-opacity="0.38"/>
<stop offset="0.55" stop-color="#29ABE2"/>
<stop offset="0.68" stop-color="#29ABE2"/>
<stop offset="0.93" stop-color="#00FFFF"/>
</linearGradient>
<linearGradient id="paint5_linear_11_44" x1="10.3336" y1="36.1099" x2="51.9301" y2="36.1099" gradientUnits="userSpaceOnUse">
<stop offset="0.03" stop-color="#FAFF00"/>
<stop offset="0.21" stop-color="#FCEE21"/>
<stop offset="0.54" stop-color="#29ABE2"/>
<stop offset="0.72" stop-color="#0000FF"/>
<stop offset="1" stop-color="#0000FF"/>
</linearGradient>
</defs>
</svg>
